<svg xmlns="http://www.w3.org/2000/svg" width="3800" height="2000" viewBox="0 0 3800 2000">
  <line x1="3078.9" y1="1003.3" x2="2373.9" y2="615.9" stroke="rgba(100,100,120,0.14)" stroke-width="5.6" />
  <line x1="3078.9" y1="1003.3" x2="2638.4" y2="1252.7" stroke="rgba(100,100,120,0.14)" stroke-width="5.6" />
  <line x1="3078.9" y1="1003.3" x2="2881.2" y2="607.3" stroke="rgba(100,100,120,0.14)" stroke-width="5.6" />
  <line x1="3078.9" y1="1003.3" x2="2191.0" y2="1015.4" stroke="rgba(100,100,120,0.14)" stroke-width="5.6" />
  <line x1="3078.9" y1="1003.3" x2="2608.3" y2="726.9" stroke="rgba(100,100,120,0.14)" stroke-width="5.6" />
  <line x1="1699.4" y1="552.4" x2="1607.8" y2="1026.6" stroke="rgba(100,100,120,0.14)" stroke-width="5.6" />
  <line x1="1699.4" y1="552.4" x2="982.9" y2="965.0" stroke="rgba(100,100,120,0.14)" stroke-width="5.6" />
  <line x1="1699.4" y1="552.4" x2="948.8" y2="508.4" stroke="rgba(100,100,120,0.14)" stroke-width="5.6" />
  <line x1="1699.4" y1="552.4" x2="2164.5" y2="1340.9" stroke="rgba(100,100,120,0.14)" stroke-width="5.6" />
  <line x1="1699.4" y1="552.4" x2="1233.9" y2="1277.8" stroke="rgba(100,100,120,0.14)" stroke-width="5.6" />
  <line x1="1699.4" y1="552.4" x2="2373.9" y2="615.9" stroke="rgba(100,100,120,0.14)" stroke-width="5.6" />
  <line x1="1476.1" y1="809.8" x2="1621.3" y2="1463.7" stroke="rgba(100,100,120,0.14)" stroke-width="5.6" />
  <line x1="1476.1" y1="809.8" x2="1249.9" y2="1683.9" stroke="rgba(100,100,120,0.14)" stroke-width="5.6" />
  <line x1="1476.1" y1="809.8" x2="2167.1" y2="762.9" stroke="rgba(100,100,120,0.14)" stroke-width="5.6" />
  <line x1="1476.1" y1="809.8" x2="2119.3" y2="257.8" stroke="rgba(100,100,120,0.14)" stroke-width="5.6" />
  <line x1="1621.3" y1="1463.7" x2="1249.9" y2="1683.9" stroke="rgba(100,100,120,0.14)" stroke-width="5.6" />
  <line x1="1621.3" y1="1463.7" x2="1607.8" y2="1026.6" stroke="rgba(100,100,120,0.14)" stroke-width="5.6" />
  <line x1="1621.3" y1="1463.7" x2="2164.5" y2="1340.9" stroke="rgba(100,100,120,0.14)" stroke-width="5.6" />
  <line x1="1621.3" y1="1463.7" x2="1354.2" y2="1032.3" stroke="rgba(100,100,120,0.14)" stroke-width="5.6" />
  <line x1="2457.6" y1="199.7" x2="2119.3" y2="257.8" stroke="rgba(100,100,120,0.14)" stroke-width="5.6" />
  <line x1="2457.6" y1="199.7" x2="2608.3" y2="726.9" stroke="rgba(100,100,120,0.14)" stroke-width="5.6" />
  <line x1="2457.6" y1="199.7" x2="2191.0" y2="1015.4" stroke="rgba(100,100,120,0.14)" stroke-width="5.6" />
  <line x1="2457.6" y1="199.7" x2="2373.9" y2="615.9" stroke="rgba(100,100,120,0.14)" stroke-width="5.6" />
  <line x1="2457.6" y1="199.7" x2="2632.2" y2="979.5" stroke="rgba(100,100,120,0.14)" stroke-width="5.6" />
  <line x1="1354.2" y1="1032.3" x2="1192.9" y2="577.5" stroke="rgba(100,100,120,0.14)" stroke-width="5.6" />
  <line x1="1354.2" y1="1032.3" x2="1249.9" y2="1683.9" stroke="rgba(100,100,120,0.14)" stroke-width="5.6" />
  <line x1="1354.2" y1="1032.3" x2="1233.9" y2="1277.8" stroke="rgba(100,100,120,0.14)" stroke-width="5.6" />
  <line x1="1354.2" y1="1032.3" x2="987.2" y2="1218.7" stroke="rgba(100,100,120,0.14)" stroke-width="5.6" />
  <line x1="1960.3" y1="909.9" x2="1776.1" y2="190.9" stroke="rgba(100,100,120,0.14)" stroke-width="5.6" />
  <line x1="1960.3" y1="909.9" x2="1354.2" y2="1032.3" stroke="rgba(100,100,120,0.14)" stroke-width="5.6" />
  <line x1="1960.3" y1="909.9" x2="2119.3" y2="257.8" stroke="rgba(100,100,120,0.14)" stroke-width="5.6" />
  <line x1="1960.3" y1="909.9" x2="1301.5" y2="348.3" stroke="rgba(100,100,120,0.14)" stroke-width="5.6" />
  <line x1="1960.3" y1="909.9" x2="1607.8" y2="1026.6" stroke="rgba(100,100,120,0.14)" stroke-width="5.6" />
  <line x1="1960.3" y1="909.9" x2="1621.3" y2="1463.7" stroke="rgba(100,100,120,0.14)" stroke-width="5.6" />
  <line x1="2881.2" y1="607.3" x2="2191.0" y2="1015.4" stroke="rgba(100,100,120,0.14)" stroke-width="5.6" />
  <line x1="2881.2" y1="607.3" x2="2373.9" y2="615.9" stroke="rgba(100,100,120,0.14)" stroke-width="5.6" />
  <line x1="2881.2" y1="607.3" x2="2850.5" y2="1113.6" stroke="rgba(100,100,120,0.14)" stroke-width="5.6" />
  <line x1="2881.2" y1="607.3" x2="2580.5" y2="421.7" stroke="rgba(100,100,120,0.14)" stroke-width="5.6" />
  <line x1="2881.2" y1="607.3" x2="2415.9" y2="1374.6" stroke="rgba(100,100,120,0.14)" stroke-width="5.6" />
  <line x1="2881.2" y1="607.3" x2="2875.5" y2="1433.0" stroke="rgba(100,100,120,0.14)" stroke-width="5.6" />
  <line x1="2638.4" y1="1252.7" x2="2373.9" y2="615.9" stroke="rgba(100,100,120,0.14)" stroke-width="5.6" />
  <line x1="2638.4" y1="1252.7" x2="2608.3" y2="726.9" stroke="rgba(100,100,120,0.14)" stroke-width="5.6" />
  <line x1="2638.4" y1="1252.7" x2="2191.0" y2="1015.4" stroke="rgba(100,100,120,0.14)" stroke-width="5.6" />
  <line x1="2638.4" y1="1252.7" x2="3090.9" y2="749.9" stroke="rgba(100,100,120,0.14)" stroke-width="5.6" />
  <line x1="2638.4" y1="1252.7" x2="3059.1" y2="1257.9" stroke="rgba(100,100,120,0.14)" stroke-width="5.6" />
  <line x1="1607.8" y1="1026.6" x2="982.9" y2="965.0" stroke="rgba(100,100,120,0.14)" stroke-width="5.6" />
  <line x1="1607.8" y1="1026.6" x2="948.8" y2="508.4" stroke="rgba(100,100,120,0.14)" stroke-width="5.6" />
  <line x1="1607.8" y1="1026.6" x2="1198.4" y2="831.1" stroke="rgba(100,100,120,0.14)" stroke-width="5.6" />
  <line x1="1607.8" y1="1026.6" x2="737.6" y2="1029.7" stroke="rgba(100,100,120,0.14)" stroke-width="5.6" />
  <line x1="1607.8" y1="1026.6" x2="698.1" y2="547.1" stroke="rgba(100,100,120,0.14)" stroke-width="5.6" />
  <line x1="1607.8" y1="1026.6" x2="2373.9" y2="615.9" stroke="rgba(100,100,120,0.14)" stroke-width="5.6" />
  <line x1="1607.8" y1="1026.6" x2="987.2" y2="1218.7" stroke="rgba(100,100,120,0.14)" stroke-width="5.6" />
  <line x1="1607.8" y1="1026.6" x2="2164.5" y2="1340.9" stroke="rgba(100,100,120,0.14)" stroke-width="5.6" />
  <line x1="2191.0" y1="1015.4" x2="1607.8" y2="1026.6" stroke="rgba(100,100,120,0.14)" stroke-width="5.6" />
  <line x1="2191.0" y1="1015.4" x2="1445.8" y2="558.0" stroke="rgba(100,100,120,0.14)" stroke-width="5.6" />
  <line x1="2191.0" y1="1015.4" x2="2164.5" y2="1340.9" stroke="rgba(100,100,120,0.14)" stroke-width="5.6" />
  <line x1="2191.0" y1="1015.4" x2="2608.3" y2="726.9" stroke="rgba(100,100,120,0.14)" stroke-width="5.6" />
  <line x1="2191.0" y1="1015.4" x2="2373.9" y2="615.9" stroke="rgba(100,100,120,0.14)" stroke-width="5.6" />
  <line x1="2191.0" y1="1015.4" x2="3059.1" y2="1257.9" stroke="rgba(100,100,120,0.14)" stroke-width="5.6" />
  <line x1="2421.6" y1="1121.0" x2="2191.0" y2="1015.4" stroke="rgba(100,100,120,0.14)" stroke-width="5.6" />
  <line x1="2421.6" y1="1121.0" x2="1445.8" y2="558.0" stroke="rgba(100,100,120,0.14)" stroke-width="5.6" />
  <line x1="2421.6" y1="1121.0" x2="3090.9" y2="749.9" stroke="rgba(100,100,120,0.14)" stroke-width="5.6" />
  <line x1="2421.6" y1="1121.0" x2="2580.5" y2="421.7" stroke="rgba(100,100,120,0.14)" stroke-width="5.6" />
  <line x1="2421.6" y1="1121.0" x2="1607.8" y2="1026.6" stroke="rgba(100,100,120,0.14)" stroke-width="5.6" />
  <line x1="2421.6" y1="1121.0" x2="1486.0" y2="1249.1" stroke="rgba(100,100,120,0.14)" stroke-width="5.6" />
  <line x1="2421.6" y1="1121.0" x2="2875.5" y2="1433.0" stroke="rgba(100,100,120,0.14)" stroke-width="5.6" />
  <line x1="2862.5" y1="860.2" x2="2608.3" y2="726.9" stroke="rgba(100,100,120,0.14)" stroke-width="5.6" />
  <line x1="2862.5" y1="860.2" x2="3059.1" y2="1257.9" stroke="rgba(100,100,120,0.14)" stroke-width="5.6" />
  <line x1="2862.5" y1="860.2" x2="2191.0" y2="1015.4" stroke="rgba(100,100,120,0.14)" stroke-width="5.6" />
  <line x1="2862.5" y1="860.2" x2="2875.5" y2="1433.0" stroke="rgba(100,100,120,0.14)" stroke-width="5.6" />
  <line x1="2862.5" y1="860.2" x2="2373.9" y2="615.9" stroke="rgba(100,100,120,0.14)" stroke-width="5.6" />
  <line x1="2862.5" y1="860.2" x2="3090.9" y2="749.9" stroke="rgba(100,100,120,0.14)" stroke-width="5.6" />
  <line x1="1090.2" y1="1486.8" x2="1198.4" y2="831.1" stroke="rgba(100,100,120,0.14)" stroke-width="5.6" />
  <line x1="1090.2" y1="1486.8" x2="1607.8" y2="1026.6" stroke="rgba(100,100,120,0.14)" stroke-width="5.6" />
  <line x1="1090.2" y1="1486.8" x2="982.9" y2="965.0" stroke="rgba(100,100,120,0.14)" stroke-width="5.6" />
  <line x1="1090.2" y1="1486.8" x2="741.9" y2="1283.3" stroke="rgba(100,100,120,0.14)" stroke-width="5.6" />
  <line x1="741.9" y1="1283.3" x2="698.1" y2="547.1" stroke="rgba(100,100,120,0.14)" stroke-width="5.6" />
  <line x1="741.9" y1="1283.3" x2="1607.8" y2="1026.6" stroke="rgba(100,100,120,0.14)" stroke-width="5.6" />
  <line x1="741.9" y1="1283.3" x2="1198.4" y2="831.1" stroke="rgba(100,100,120,0.14)" stroke-width="5.6" />
  <line x1="741.9" y1="1283.3" x2="982.9" y2="965.0" stroke="rgba(100,100,120,0.14)" stroke-width="5.6" />
  <line x1="698.1" y1="547.1" x2="1198.4" y2="831.1" stroke="rgba(100,100,120,0.14)" stroke-width="5.6" />
  <line x1="698.1" y1="547.1" x2="737.6" y2="1029.7" stroke="rgba(100,100,120,0.14)" stroke-width="5.6" />
  <line x1="698.1" y1="547.1" x2="982.9" y2="965.0" stroke="rgba(100,100,120,0.14)" stroke-width="5.6" />
  <line x1="1984.2" y1="1162.4" x2="1198.4" y2="831.1" stroke="rgba(100,100,120,0.14)" stroke-width="5.6" />
  <line x1="1984.2" y1="1162.4" x2="1607.8" y2="1026.6" stroke="rgba(100,100,120,0.14)" stroke-width="5.6" />
  <line x1="1984.2" y1="1162.4" x2="1567.7" y2="335.5" stroke="rgba(100,100,120,0.14)" stroke-width="5.6" />
  <line x1="2410.2" y1="1628.2" x2="2608.3" y2="726.9" stroke="rgba(100,100,120,0.14)" stroke-width="5.6" />
  <line x1="2410.2" y1="1628.2" x2="2850.5" y2="1113.6" stroke="rgba(100,100,120,0.14)" stroke-width="5.6" />
  <line x1="2410.2" y1="1628.2" x2="2191.0" y2="1015.4" stroke="rgba(100,100,120,0.14)" stroke-width="5.6" />
  <line x1="2410.2" y1="1628.2" x2="2397.8" y2="868.5" stroke="rgba(100,100,120,0.14)" stroke-width="5.6" />
  <line x1="2410.2" y1="1628.2" x2="3059.1" y2="1257.9" stroke="rgba(100,100,120,0.14)" stroke-width="5.6" />
  <line x1="2410.2" y1="1628.2" x2="2632.2" y2="979.5" stroke="rgba(100,100,120,0.14)" stroke-width="5.6" />
  <line x1="2167.1" y1="762.9" x2="1445.8" y2="558.0" stroke="rgba(100,100,120,0.14)" stroke-width="5.6" />
  <line x1="2167.1" y1="762.9" x2="1607.8" y2="1026.6" stroke="rgba(100,100,120,0.14)" stroke-width="5.6" />
  <line x1="2167.1" y1="762.9" x2="2119.3" y2="257.8" stroke="rgba(100,100,120,0.14)" stroke-width="5.6" />
  <line x1="1743.1" y1="1241.2" x2="2164.5" y2="1340.9" stroke="rgba(100,100,120,0.14)" stroke-width="5.6" />
  <line x1="1743.1" y1="1241.2" x2="1975.6" y2="1806.6" stroke="rgba(100,100,120,0.14)" stroke-width="5.6" />
  <line x1="1743.1" y1="1241.2" x2="1249.9" y2="1683.9" stroke="rgba(100,100,120,0.14)" stroke-width="5.6" />
  <line x1="1743.1" y1="1241.2" x2="1233.9" y2="1277.8" stroke="rgba(100,100,120,0.14)" stroke-width="5.6" />
  <line x1="1743.1" y1="1241.2" x2="2191.0" y2="1015.4" stroke="rgba(100,100,120,0.14)" stroke-width="5.6" />
  <line x1="1743.1" y1="1241.2" x2="1607.8" y2="1026.6" stroke="rgba(100,100,120,0.14)" stroke-width="5.6" />
  <line x1="1743.1" y1="1241.2" x2="2397.8" y2="868.5" stroke="rgba(100,100,120,0.14)" stroke-width="5.6" />
  <line x1="1936.5" y1="657.3" x2="2373.9" y2="615.9" stroke="rgba(100,100,120,0.14)" stroke-width="5.6" />
  <line x1="1936.5" y1="657.3" x2="2191.0" y2="1015.4" stroke="rgba(100,100,120,0.14)" stroke-width="5.6" />
  <line x1="1936.5" y1="657.3" x2="2457.6" y2="199.7" stroke="rgba(100,100,120,0.14)" stroke-width="5.6" />
  <line x1="1936.5" y1="657.3" x2="2632.2" y2="979.5" stroke="rgba(100,100,120,0.14)" stroke-width="5.6" />
  <line x1="1936.5" y1="657.3" x2="2850.5" y2="1113.6" stroke="rgba(100,100,120,0.14)" stroke-width="5.6" />
  <line x1="982.9" y1="965.0" x2="948.8" y2="508.4" stroke="rgba(100,100,120,0.14)" stroke-width="5.6" />
  <line x1="1233.9" y1="1277.8" x2="2164.5" y2="1340.9" stroke="rgba(100,100,120,0.14)" stroke-width="5.6" />
  <line x1="1233.9" y1="1277.8" x2="1607.8" y2="1026.6" stroke="rgba(100,100,120,0.14)" stroke-width="5.6" />
  <line x1="1233.9" y1="1277.8" x2="1621.3" y2="1463.7" stroke="rgba(100,100,120,0.14)" stroke-width="5.6" />
  <line x1="1233.9" y1="1277.8" x2="737.6" y2="1029.7" stroke="rgba(100,100,120,0.14)" stroke-width="5.6" />
  <line x1="1233.9" y1="1277.8" x2="1445.8" y2="558.0" stroke="rgba(100,100,120,0.14)" stroke-width="5.6" />
  <line x1="1233.9" y1="1277.8" x2="1192.9" y2="577.5" stroke="rgba(100,100,120,0.14)" stroke-width="5.6" />
  <line x1="1233.9" y1="1277.8" x2="948.8" y2="508.4" stroke="rgba(100,100,120,0.14)" stroke-width="5.6" />
  <line x1="2143.3" y1="510.4" x2="1621.3" y2="1463.7" stroke="rgba(100,100,120,0.14)" stroke-width="5.6" />
  <line x1="2143.3" y1="510.4" x2="2119.3" y2="257.8" stroke="rgba(100,100,120,0.14)" stroke-width="5.6" />
  <line x1="2143.3" y1="510.4" x2="1354.2" y2="1032.3" stroke="rgba(100,100,120,0.14)" stroke-width="5.6" />
  <line x1="2143.3" y1="510.4" x2="1476.1" y2="809.8" stroke="rgba(100,100,120,0.14)" stroke-width="5.6" />
  <line x1="2143.3" y1="510.4" x2="1960.3" y2="909.9" stroke="rgba(100,100,120,0.14)" stroke-width="5.6" />
  <line x1="2143.3" y1="510.4" x2="1607.8" y2="1026.6" stroke="rgba(100,100,120,0.14)" stroke-width="5.6" />
  <line x1="1503.5" y1="1688.3" x2="1975.6" y2="1806.6" stroke="rgba(100,100,120,0.14)" stroke-width="5.6" />
  <line x1="1503.5" y1="1688.3" x2="2164.5" y2="1340.9" stroke="rgba(100,100,120,0.14)" stroke-width="5.6" />
  <line x1="1503.5" y1="1688.3" x2="1743.1" y2="1241.2" stroke="rgba(100,100,120,0.14)" stroke-width="5.6" />
  <line x1="1503.5" y1="1688.3" x2="1233.9" y2="1277.8" stroke="rgba(100,100,120,0.14)" stroke-width="5.6" />
  <line x1="1503.5" y1="1688.3" x2="2397.8" y2="868.5" stroke="rgba(100,100,120,0.14)" stroke-width="5.6" />
  <line x1="1503.5" y1="1688.3" x2="987.2" y2="1218.7" stroke="rgba(100,100,120,0.14)" stroke-width="5.6" />
  <line x1="737.6" y1="1029.7" x2="1198.4" y2="831.1" stroke="rgba(100,100,120,0.14)" stroke-width="5.6" />
  <line x1="737.6" y1="1029.7" x2="948.8" y2="508.4" stroke="rgba(100,100,120,0.14)" stroke-width="5.6" />
  <line x1="737.6" y1="1029.7" x2="1192.9" y2="577.5" stroke="rgba(100,100,120,0.14)" stroke-width="5.6" />
  <line x1="737.6" y1="1029.7" x2="857.0" y2="744.8" stroke="rgba(100,100,120,0.14)" stroke-width="5.6" />
  <line x1="2397.8" y1="868.5" x2="2164.5" y2="1340.9" stroke="rgba(100,100,120,0.14)" stroke-width="5.6" />
  <line x1="2397.8" y1="868.5" x2="2191.0" y2="1015.4" stroke="rgba(100,100,120,0.14)" stroke-width="5.6" />
  <line x1="2397.8" y1="868.5" x2="2608.3" y2="726.9" stroke="rgba(100,100,120,0.14)" stroke-width="5.6" />
  <line x1="3059.1" y1="1257.9" x2="2608.3" y2="726.9" stroke="rgba(100,100,120,0.14)" stroke-width="5.6" />
  <line x1="3059.1" y1="1257.9" x2="2164.5" y2="1340.9" stroke="rgba(100,100,120,0.14)" stroke-width="5.6" />
  <line x1="3059.1" y1="1257.9" x2="2373.9" y2="615.9" stroke="rgba(100,100,120,0.14)" stroke-width="5.6" />
  <line x1="857.0" y1="744.8" x2="1607.8" y2="1026.6" stroke="rgba(100,100,120,0.14)" stroke-width="5.6" />
  <line x1="857.0" y1="744.8" x2="741.9" y2="1283.3" stroke="rgba(100,100,120,0.14)" stroke-width="5.6" />
  <line x1="857.0" y1="744.8" x2="1192.9" y2="577.5" stroke="rgba(100,100,120,0.14)" stroke-width="5.6" />
  <line x1="1975.6" y1="1806.6" x2="2164.5" y2="1340.9" stroke="rgba(100,100,120,0.14)" stroke-width="5.6" />
  <line x1="1975.6" y1="1806.6" x2="1621.3" y2="1463.7" stroke="rgba(100,100,120,0.14)" stroke-width="5.6" />
  <line x1="1975.6" y1="1806.6" x2="1249.9" y2="1683.9" stroke="rgba(100,100,120,0.14)" stroke-width="5.6" />
  <line x1="1975.6" y1="1806.6" x2="1233.9" y2="1277.8" stroke="rgba(100,100,120,0.14)" stroke-width="5.6" />
  <line x1="1975.6" y1="1806.6" x2="2191.0" y2="1015.4" stroke="rgba(100,100,120,0.14)" stroke-width="5.6" />
  <line x1="1486.0" y1="1249.1" x2="1445.8" y2="558.0" stroke="rgba(100,100,120,0.14)" stroke-width="5.6" />
  <line x1="1486.0" y1="1249.1" x2="1607.8" y2="1026.6" stroke="rgba(100,100,120,0.14)" stroke-width="5.6" />
  <line x1="1486.0" y1="1249.1" x2="1301.5" y2="348.3" stroke="rgba(100,100,120,0.14)" stroke-width="5.6" />
  <line x1="2580.5" y1="421.7" x2="2191.0" y2="1015.4" stroke="rgba(100,100,120,0.14)" stroke-width="5.6" />
  <line x1="2580.5" y1="421.7" x2="2862.5" y2="860.2" stroke="rgba(100,100,120,0.14)" stroke-width="5.6" />
  <line x1="2580.5" y1="421.7" x2="2632.2" y2="979.5" stroke="rgba(100,100,120,0.14)" stroke-width="5.6" />
  <line x1="2580.5" y1="421.7" x2="2608.3" y2="726.9" stroke="rgba(100,100,120,0.14)" stroke-width="5.6" />
  <line x1="2580.5" y1="421.7" x2="3090.9" y2="749.9" stroke="rgba(100,100,120,0.14)" stroke-width="5.6" />
  <line x1="2580.5" y1="421.7" x2="2373.9" y2="615.9" stroke="rgba(100,100,120,0.14)" stroke-width="5.6" />
  <line x1="1198.4" y1="831.1" x2="1567.7" y2="335.5" stroke="rgba(100,100,120,0.14)" stroke-width="5.6" />
  <line x1="1249.9" y1="1683.9" x2="987.2" y2="1218.7" stroke="rgba(100,100,120,0.14)" stroke-width="5.6" />
  <line x1="2373.9" y1="615.9" x2="2608.3" y2="726.9" stroke="rgba(100,100,120,0.14)" stroke-width="5.6" />
  <line x1="2373.9" y1="615.9" x2="2164.5" y2="1340.9" stroke="rgba(100,100,120,0.14)" stroke-width="5.6" />
  <line x1="2373.9" y1="615.9" x2="2119.3" y2="257.8" stroke="rgba(100,100,120,0.14)" stroke-width="5.6" />
  <line x1="1729.7" y1="804.2" x2="2191.0" y2="1015.4" stroke="rgba(100,100,120,0.14)" stroke-width="5.6" />
  <line x1="1729.7" y1="804.2" x2="2119.3" y2="257.8" stroke="rgba(100,100,120,0.14)" stroke-width="5.6" />
  <line x1="1729.7" y1="804.2" x2="2373.9" y2="615.9" stroke="rgba(100,100,120,0.14)" stroke-width="5.6" />
  <line x1="1729.7" y1="804.2" x2="2632.2" y2="979.5" stroke="rgba(100,100,120,0.14)" stroke-width="5.6" />
  <line x1="1729.7" y1="804.2" x2="1445.8" y2="558.0" stroke="rgba(100,100,120,0.14)" stroke-width="5.6" />
  <line x1="1301.5" y1="348.3" x2="1607.8" y2="1026.6" stroke="rgba(100,100,120,0.14)" stroke-width="5.6" />
  <line x1="1301.5" y1="348.3" x2="1445.8" y2="558.0" stroke="rgba(100,100,120,0.14)" stroke-width="5.6" />
  <line x1="2850.5" y1="1113.6" x2="2397.8" y2="868.5" stroke="rgba(100,100,120,0.14)" stroke-width="5.6" />
  <line x1="2850.5" y1="1113.6" x2="2608.3" y2="726.9" stroke="rgba(100,100,120,0.14)" stroke-width="5.6" />
  <line x1="2850.5" y1="1113.6" x2="2164.5" y2="1340.9" stroke="rgba(100,100,120,0.14)" stroke-width="5.6" />
  <line x1="2850.5" y1="1113.6" x2="2632.2" y2="979.5" stroke="rgba(100,100,120,0.14)" stroke-width="5.6" />
  <line x1="2850.5" y1="1113.6" x2="2580.5" y2="421.7" stroke="rgba(100,100,120,0.14)" stroke-width="5.6" />
  <line x1="2850.5" y1="1113.6" x2="2875.5" y2="1433.0" stroke="rgba(100,100,120,0.14)" stroke-width="5.6" />
  <line x1="2850.5" y1="1113.6" x2="2191.0" y2="1015.4" stroke="rgba(100,100,120,0.14)" stroke-width="5.6" />
  <line x1="2632.2" y1="979.5" x2="2191.0" y2="1015.4" stroke="rgba(100,100,120,0.14)" stroke-width="5.6" />
  <line x1="2632.2" y1="979.5" x2="2608.3" y2="726.9" stroke="rgba(100,100,120,0.14)" stroke-width="5.6" />
  <line x1="2632.2" y1="979.5" x2="3059.1" y2="1257.9" stroke="rgba(100,100,120,0.14)" stroke-width="5.6" />
  <line x1="2632.2" y1="979.5" x2="2632.7" y2="1506.3" stroke="rgba(100,100,120,0.14)" stroke-width="5.6" />
  <line x1="2632.2" y1="979.5" x2="3090.9" y2="749.9" stroke="rgba(100,100,120,0.14)" stroke-width="5.6" />
  <line x1="3090.9" y1="749.9" x2="2191.0" y2="1015.4" stroke="rgba(100,100,120,0.14)" stroke-width="5.6" />
  <line x1="3090.9" y1="749.9" x2="2608.3" y2="726.9" stroke="rgba(100,100,120,0.14)" stroke-width="5.6" />
  <line x1="3090.9" y1="749.9" x2="3059.1" y2="1257.9" stroke="rgba(100,100,120,0.14)" stroke-width="5.6" />
  <line x1="3090.9" y1="749.9" x2="2373.9" y2="615.9" stroke="rgba(100,100,120,0.14)" stroke-width="5.6" />
  <line x1="2632.7" y1="1506.3" x2="3059.1" y2="1257.9" stroke="rgba(100,100,120,0.14)" stroke-width="5.6" />
  <line x1="2632.7" y1="1506.3" x2="2191.0" y2="1015.4" stroke="rgba(100,100,120,0.14)" stroke-width="5.6" />
  <line x1="2632.7" y1="1506.3" x2="2608.3" y2="726.9" stroke="rgba(100,100,120,0.14)" stroke-width="5.6" />
  <line x1="2632.7" y1="1506.3" x2="2373.9" y2="615.9" stroke="rgba(100,100,120,0.14)" stroke-width="5.6" />
  <line x1="1776.1" y1="190.9" x2="2119.3" y2="257.8" stroke="rgba(100,100,120,0.14)" stroke-width="5.6" />
  <line x1="1776.1" y1="190.9" x2="1301.5" y2="348.3" stroke="rgba(100,100,120,0.14)" stroke-width="5.6" />
  <line x1="1776.1" y1="190.9" x2="1607.8" y2="1026.6" stroke="rgba(100,100,120,0.14)" stroke-width="5.6" />
  <line x1="1776.1" y1="190.9" x2="2373.9" y2="615.9" stroke="rgba(100,100,120,0.14)" stroke-width="5.6" />
  <line x1="1776.1" y1="190.9" x2="2457.6" y2="199.7" stroke="rgba(100,100,120,0.14)" stroke-width="5.6" />
  <line x1="2415.9" y1="1374.6" x2="2608.3" y2="726.9" stroke="rgba(100,100,120,0.14)" stroke-width="5.6" />
  <line x1="2415.9" y1="1374.6" x2="2875.5" y2="1433.0" stroke="rgba(100,100,120,0.14)" stroke-width="5.6" />
  <line x1="2415.9" y1="1374.6" x2="2191.0" y2="1015.4" stroke="rgba(100,100,120,0.14)" stroke-width="5.6" />
  <line x1="2415.9" y1="1374.6" x2="2862.5" y2="860.2" stroke="rgba(100,100,120,0.14)" stroke-width="5.6" />
  <line x1="2415.9" y1="1374.6" x2="2373.9" y2="615.9" stroke="rgba(100,100,120,0.14)" stroke-width="5.6" />
  <line x1="2415.9" y1="1374.6" x2="3059.1" y2="1257.9" stroke="rgba(100,100,120,0.14)" stroke-width="5.6" />
  <line x1="2415.9" y1="1374.6" x2="2580.5" y2="421.7" stroke="rgba(100,100,120,0.14)" stroke-width="5.6" />
  <line x1="1192.9" y1="577.5" x2="1607.8" y2="1026.6" stroke="rgba(100,100,120,0.14)" stroke-width="5.6" />
  <line x1="1192.9" y1="577.5" x2="698.1" y2="547.1" stroke="rgba(100,100,120,0.14)" stroke-width="5.6" />
  <line x1="1192.9" y1="577.5" x2="987.2" y2="1218.7" stroke="rgba(100,100,120,0.14)" stroke-width="5.6" />
  <line x1="2875.5" y1="1433.0" x2="2191.0" y2="1015.4" stroke="rgba(100,100,120,0.14)" stroke-width="5.6" />
  <line x1="2875.5" y1="1433.0" x2="2608.3" y2="726.9" stroke="rgba(100,100,120,0.14)" stroke-width="5.6" />
  <line x1="2875.5" y1="1433.0" x2="2632.2" y2="979.5" stroke="rgba(100,100,120,0.14)" stroke-width="5.6" />
  <line x1="2875.5" y1="1433.0" x2="3090.9" y2="749.9" stroke="rgba(100,100,120,0.14)" stroke-width="5.6" />
  <line x1="1912.6" y1="404.8" x2="2397.8" y2="868.5" stroke="rgba(100,100,120,0.14)" stroke-width="5.6" />
  <line x1="1912.6" y1="404.8" x2="2608.3" y2="726.9" stroke="rgba(100,100,120,0.14)" stroke-width="5.6" />
  <line x1="1912.6" y1="404.8" x2="1476.1" y2="809.8" stroke="rgba(100,100,120,0.14)" stroke-width="5.6" />
  <line x1="1912.6" y1="404.8" x2="2164.5" y2="1340.9" stroke="rgba(100,100,120,0.14)" stroke-width="5.6" />
  <line x1="1912.6" y1="404.8" x2="1607.8" y2="1026.6" stroke="rgba(100,100,120,0.14)" stroke-width="5.6" />
  <line x1="1912.6" y1="404.8" x2="2191.0" y2="1015.4" stroke="rgba(100,100,120,0.14)" stroke-width="5.6" />
  <line x1="1912.6" y1="404.8" x2="1445.8" y2="558.0" stroke="rgba(100,100,120,0.14)" stroke-width="5.6" />
  <line x1="2824.6" y1="352.7" x2="2119.3" y2="257.8" stroke="rgba(100,100,120,0.14)" stroke-width="5.6" />
  <line x1="2824.6" y1="352.7" x2="2457.6" y2="199.7" stroke="rgba(100,100,120,0.14)" stroke-width="5.6" />
  <line x1="2824.6" y1="352.7" x2="2191.0" y2="1015.4" stroke="rgba(100,100,120,0.14)" stroke-width="5.6" />
  <line x1="2824.6" y1="352.7" x2="2862.5" y2="860.2" stroke="rgba(100,100,120,0.14)" stroke-width="5.6" />
  <line x1="2824.6" y1="352.7" x2="3090.9" y2="749.9" stroke="rgba(100,100,120,0.14)" stroke-width="5.6" />
  <line x1="987.2" y1="1218.7" x2="1743.1" y2="1241.2" stroke="rgba(100,100,120,0.14)" stroke-width="5.6" />
  <line x1="987.2" y1="1218.7" x2="1233.9" y2="1277.8" stroke="rgba(100,100,120,0.14)" stroke-width="5.6" />
  <line x1="987.2" y1="1218.7" x2="1445.8" y2="558.0" stroke="rgba(100,100,120,0.14)" stroke-width="5.6" />
  <line x1="987.2" y1="1218.7" x2="1621.3" y2="1463.7" stroke="rgba(100,100,120,0.14)" stroke-width="5.6" />
  <line x1="2164.5" y1="1340.9" x2="2608.3" y2="726.9" stroke="rgba(100,100,120,0.14)" stroke-width="5.6" />
  <line x1="2608.3" y1="726.9" x2="1743.1" y2="1241.2" stroke="rgba(100,100,120,0.14)" stroke-width="5.6" />
  <line x1="2608.3" y1="726.9" x2="2119.3" y2="257.8" stroke="rgba(100,100,120,0.14)" stroke-width="5.6" />
  <line x1="1445.8" y1="558.0" x2="1607.8" y2="1026.6" stroke="rgba(100,100,120,0.14)" stroke-width="5.6" />
  <line x1="1445.8" y1="558.0" x2="982.9" y2="965.0" stroke="rgba(100,100,120,0.14)" stroke-width="5.6" />
  <line x1="1567.7" y1="335.5" x2="1607.8" y2="1026.6" stroke="rgba(100,100,120,0.14)" stroke-width="5.6" />
  <line x1="1757.0" y1="1678.0" x2="1621.3" y2="1463.7" stroke="rgba(100,100,120,0.14)" stroke-width="5.6" />
  <line x1="1757.0" y1="1678.0" x2="2191.0" y2="1015.4" stroke="rgba(100,100,120,0.14)" stroke-width="5.6" />
  <line x1="1757.0" y1="1678.0" x2="1354.2" y2="1032.3" stroke="rgba(100,100,120,0.14)" stroke-width="5.6" />
  <line x1="1757.0" y1="1678.0" x2="1249.9" y2="1683.9" stroke="rgba(100,100,120,0.14)" stroke-width="5.6" />
  <line x1="1757.0" y1="1678.0" x2="987.2" y2="1218.7" stroke="rgba(100,100,120,0.14)" stroke-width="5.6" />
  <line x1="1757.0" y1="1678.0" x2="1486.0" y2="1249.1" stroke="rgba(100,100,120,0.14)" stroke-width="5.6" />
  <line x1="1757.0" y1="1678.0" x2="1743.1" y2="1241.2" stroke="rgba(100,100,120,0.14)" stroke-width="5.6" />
  <line x1="2119.3" y1="257.8" x2="2191.0" y2="1015.4" stroke="rgba(100,100,120,0.14)" stroke-width="5.6" />
  <line x1="2119.3" y1="257.8" x2="1607.8" y2="1026.6" stroke="rgba(100,100,120,0.14)" stroke-width="5.6" />
  <circle cx="3078.9" cy="1003.3" r="38.2" fill="#c4855c" />
  <circle cx="1699.4" cy="552.4" r="40.9" fill="#9683b7" />
  <circle cx="1476.1" cy="809.8" r="40.9" fill="#b89458" />
  <circle cx="1621.3" cy="1463.7" r="51.9" fill="#b89458" />
  <circle cx="2457.6" cy="199.7" r="45.7" fill="#6790b5" />
  <circle cx="1354.2" cy="1032.3" r="45.7" fill="#b89458" />
  <circle cx="1960.3" cy="909.9" r="43.4" fill="#549e93" />
  <circle cx="2881.2" cy="607.3" r="43.4" fill="#a87f98" />
  <circle cx="2638.4" cy="1252.7" r="40.9" fill="#c4855c" />
  <circle cx="1607.8" cy="1026.6" r="78.2" fill="#9683b7" />
  <circle cx="2191.0" cy="1015.4" r="78.2" fill="#b5616a" />
  <circle cx="2421.6" cy="1121.0" r="43.4" fill="#a87f98" />
  <circle cx="2862.5" cy="860.2" r="47.9" fill="#b5616a" />
  <circle cx="1090.2" cy="1486.8" r="35.2" fill="#9683b7" />
  <circle cx="741.9" cy="1283.3" r="40.9" fill="#9683b7" />
  <circle cx="698.1" cy="547.1" r="40.9" fill="#9683b7" />
  <circle cx="1984.2" cy="1162.4" r="31.8" fill="#9683b7" />
  <circle cx="2410.2" cy="1628.2" r="40.9" fill="#b5616a" />
  <circle cx="2167.1" cy="762.9" r="35.2" fill="#6790b5" />
  <circle cx="1743.1" cy="1241.2" r="51.9" fill="#b5616a" />
  <circle cx="1936.5" cy="657.3" r="38.2" fill="#c4855c" />
  <circle cx="982.9" cy="965.0" r="43.4" fill="#9683b7" />
  <circle cx="1233.9" cy="1277.8" r="55.6" fill="#b89458" />
  <circle cx="2143.3" cy="510.4" r="40.9" fill="#b89458" />
  <circle cx="1503.5" cy="1688.3" r="40.9" fill="#b89458" />
  <circle cx="737.6" cy="1029.7" r="43.4" fill="#9683b7" />
  <circle cx="2397.8" cy="868.5" r="45.7" fill="#b5616a" />
  <circle cx="3059.1" cy="1257.9" r="51.9" fill="#c4855c" />
  <circle cx="857.0" cy="744.8" r="35.2" fill="#9683b7" />
  <circle cx="1975.6" cy="1806.6" r="43.4" fill="#b5616a" />
  <circle cx="1486.0" cy="1249.1" r="38.2" fill="#549e93" />
  <circle cx="2580.5" cy="421.7" r="50.0" fill="#a87f98" />
  <circle cx="1198.4" cy="831.1" r="43.4" fill="#9683b7" />
  <circle cx="1249.9" cy="1683.9" r="43.4" fill="#b89458" />
  <circle cx="2373.9" cy="615.9" r="65.2" fill="#c4855c" />
  <circle cx="1729.7" cy="804.2" r="38.2" fill="#6790b5" />
  <circle cx="1301.5" cy="348.3" r="38.2" fill="#549e93" />
  <circle cx="2850.5" cy="1113.6" r="50.0" fill="#b5616a" />
  <circle cx="2632.2" cy="979.5" r="53.8" fill="#c4855c" />
  <circle cx="3090.9" cy="749.9" r="51.9" fill="#c4855c" />
  <circle cx="2632.7" cy="1506.3" r="38.2" fill="#c4855c" />
  <circle cx="948.8" cy="508.4" r="38.2" fill="#9683b7" />
  <circle cx="1776.1" cy="190.9" r="40.9" fill="#c4855c" />
  <circle cx="2415.9" cy="1374.6" r="45.7" fill="#a87f98" />
  <circle cx="1192.9" cy="577.5" r="43.4" fill="#9683b7" />
  <circle cx="2875.5" cy="1433.0" r="47.9" fill="#a87f98" />
  <circle cx="1912.6" cy="404.8" r="43.4" fill="#b5616a" />
  <circle cx="2824.6" cy="352.7" r="38.2" fill="#6790b5" />
  <circle cx="987.2" cy="1218.7" r="50.0" fill="#b89458" />
  <circle cx="2164.5" cy="1340.9" r="57.3" fill="#b5616a" />
  <circle cx="2608.3" cy="726.9" r="66.6" fill="#b5616a" />
  <circle cx="1445.8" cy="558.0" r="51.9" fill="#549e93" />
  <circle cx="1567.7" cy="335.5" r="31.8" fill="#9683b7" />
  <circle cx="1757.0" cy="1678.0" r="43.4" fill="#b89458" />
  <circle cx="2119.3" cy="257.8" r="53.8" fill="#6790b5" />
  <text x="3078.9" y="1073.5" text-anchor="middle" font-family="Inter, -apple-system, system-ui, sans-serif" font-size="24" font-weight="400" fill="rgba(40,40,50,0.5)">AIDS as Bioweapon</text>
  <text x="1699.4" y="625.3" text-anchor="middle" font-family="Inter, -apple-system, system-ui, sans-serif" font-size="24" font-weight="400" fill="rgba(40,40,50,0.5)">Altered States</text>
  <text x="1476.1" y="882.8" text-anchor="middle" font-family="Inter, -apple-system, system-ui, sans-serif" font-size="24" font-weight="400" fill="rgba(40,40,50,0.5)">Ancient Astronauts</text>
  <text x="1621.3" y="1547.6" text-anchor="middle" font-family="Inter, -apple-system, system-ui, sans-serif" font-size="24" font-weight="400" fill="rgba(40,40,50,0.5)">Lost Ancient Civilizations</text>
  <text x="2457.6" y="277.4" text-anchor="middle" font-family="Inter, -apple-system, system-ui, sans-serif" font-size="24" font-weight="400" fill="rgba(40,40,50,0.5)">Area 51</text>
  <text x="1354.2" y="1110.0" text-anchor="middle" font-family="Inter, -apple-system, system-ui, sans-serif" font-size="24" font-weight="400" fill="rgba(40,40,50,0.5)">Atlantis</text>
  <text x="1960.3" y="985.3" text-anchor="middle" font-family="Inter, -apple-system, system-ui, sans-serif" font-size="24" font-weight="400" fill="rgba(40,40,50,0.5)">The Bermuda Triangle</text>
  <text x="2881.2" y="682.7" text-anchor="middle" font-family="Inter, -apple-system, system-ui, sans-serif" font-size="24" font-weight="400" fill="rgba(40,40,50,0.5)">Big Pharma and the Vaccine Conspiracy</text>
  <text x="2638.4" y="1325.7" text-anchor="middle" font-family="Inter, -apple-system, system-ui, sans-serif" font-size="24" font-weight="400" fill="rgba(40,40,50,0.5)">CIA Drug Trafficking</text>
  <text x="1607.8" y="1136.8" text-anchor="middle" font-family="Inter, -apple-system, system-ui, sans-serif" font-size="24" font-weight="400" fill="rgba(40,40,50,0.5)">Consciousness</text>
  <text x="2191.0" y="1125.6" text-anchor="middle" font-family="Inter, -apple-system, system-ui, sans-serif" font-size="24" font-weight="400" fill="rgba(40,40,50,0.5)">Invisible Control Systems</text>
  <text x="2421.6" y="1196.4" text-anchor="middle" font-family="Inter, -apple-system, system-ui, sans-serif" font-size="24" font-weight="400" fill="rgba(40,40,50,0.5)">The Dead Internet Theory</text>
  <text x="2862.5" y="940.2" text-anchor="middle" font-family="Inter, -apple-system, system-ui, sans-serif" font-size="24" font-weight="400" fill="rgba(40,40,50,0.5)">The Deep State</text>
  <text x="1090.2" y="1554.0" text-anchor="middle" font-family="Inter, -apple-system, system-ui, sans-serif" font-size="24" font-weight="400" fill="rgba(40,40,50,0.5)">Daniel Dennett &amp; Modern Materialism</text>
  <text x="741.9" y="1356.2" text-anchor="middle" font-family="Inter, -apple-system, system-ui, sans-serif" font-size="24" font-weight="400" fill="rgba(40,40,50,0.5)">Descartes &amp; Cartesian Dualism</text>
  <text x="698.1" y="620.0" text-anchor="middle" font-family="Inter, -apple-system, system-ui, sans-serif" font-size="24" font-weight="400" fill="rgba(40,40,50,0.5)">Dualism</text>
  <text x="1984.2" y="1226.2" text-anchor="middle" font-family="Inter, -apple-system, system-ui, sans-serif" font-size="24" font-weight="400" fill="rgba(40,40,50,0.5)">Epicureanism</text>
  <text x="2410.2" y="1701.1" text-anchor="middle" font-family="Inter, -apple-system, system-ui, sans-serif" font-size="24" font-weight="400" fill="rgba(40,40,50,0.5)">The Federal Reserve</text>
  <text x="2167.1" y="830.2" text-anchor="middle" font-family="Inter, -apple-system, system-ui, sans-serif" font-size="24" font-weight="400" fill="rgba(40,40,50,0.5)">The Fermi Paradox</text>
  <text x="1743.1" y="1325.1" text-anchor="middle" font-family="Inter, -apple-system, system-ui, sans-serif" font-size="24" font-weight="400" fill="rgba(40,40,50,0.5)">Freemasonry</text>
  <text x="1936.5" y="727.6" text-anchor="middle" font-family="Inter, -apple-system, system-ui, sans-serif" font-size="24" font-weight="400" fill="rgba(40,40,50,0.5)">HAARP and Weather Manipulation</text>
  <text x="982.9" y="1040.5" text-anchor="middle" font-family="Inter, -apple-system, system-ui, sans-serif" font-size="24" font-weight="400" fill="rgba(40,40,50,0.5)">The Hard Problem</text>
  <text x="1233.9" y="1365.4" text-anchor="middle" font-family="Inter, -apple-system, system-ui, sans-serif" font-size="24" font-weight="400" fill="rgba(40,40,50,0.5)">The Hermetic Tradition</text>
  <text x="2143.3" y="583.3" text-anchor="middle" font-family="Inter, -apple-system, system-ui, sans-serif" font-size="24" font-weight="400" fill="rgba(40,40,50,0.5)">The Hollow Earth</text>
  <text x="1503.5" y="1761.3" text-anchor="middle" font-family="Inter, -apple-system, system-ui, sans-serif" font-size="24" font-weight="400" fill="rgba(40,40,50,0.5)">The Holy Grail and the Bloodline of Christ</text>
  <text x="737.6" y="1105.1" text-anchor="middle" font-family="Inter, -apple-system, system-ui, sans-serif" font-size="24" font-weight="400" fill="rgba(40,40,50,0.5)">Idealism</text>
  <text x="2397.8" y="946.2" text-anchor="middle" font-family="Inter, -apple-system, system-ui, sans-serif" font-size="24" font-weight="400" fill="rgba(40,40,50,0.5)">The Illuminati</text>
  <text x="3059.1" y="1341.9" text-anchor="middle" font-family="Inter, -apple-system, system-ui, sans-serif" font-size="24" font-weight="400" fill="rgba(40,40,50,0.5)">The JFK Assassination</text>
  <text x="857.0" y="812.1" text-anchor="middle" font-family="Inter, -apple-system, system-ui, sans-serif" font-size="24" font-weight="400" fill="rgba(40,40,50,0.5)">Kant &amp; Transcendental Idealism</text>
  <text x="1975.6" y="1882.0" text-anchor="middle" font-family="Inter, -apple-system, system-ui, sans-serif" font-size="24" font-weight="400" fill="rgba(40,40,50,0.5)">The Knights Templar</text>
  <text x="1486.0" y="1319.3" text-anchor="middle" font-family="Inter, -apple-system, system-ui, sans-serif" font-size="24" font-weight="400" fill="rgba(40,40,50,0.5)">The Mandela Effect</text>
  <text x="2580.5" y="503.6" text-anchor="middle" font-family="Inter, -apple-system, system-ui, sans-serif" font-size="24" font-weight="400" fill="rgba(40,40,50,0.5)">Mass Surveillance</text>
  <text x="1198.4" y="906.5" text-anchor="middle" font-family="Inter, -apple-system, system-ui, sans-serif" font-size="24" font-weight="400" fill="rgba(40,40,50,0.5)">Materialism</text>
  <text x="1249.9" y="1759.3" text-anchor="middle" font-family="Inter, -apple-system, system-ui, sans-serif" font-size="24" font-weight="400" fill="rgba(40,40,50,0.5)">Megalithic Mysteries</text>
  <text x="2373.9" y="713.1" text-anchor="middle" font-family="Inter, -apple-system, system-ui, sans-serif" font-size="24" font-weight="400" fill="rgba(40,40,50,0.5)">MKUltra</text>
  <text x="1729.7" y="874.4" text-anchor="middle" font-family="Inter, -apple-system, system-ui, sans-serif" font-size="24" font-weight="400" fill="rgba(40,40,50,0.5)">The Moon Landing Hoax</text>
  <text x="1301.5" y="418.5" text-anchor="middle" font-family="Inter, -apple-system, system-ui, sans-serif" font-size="24" font-weight="400" fill="rgba(40,40,50,0.5)">The Nature of Time</text>
  <text x="2850.5" y="1195.6" text-anchor="middle" font-family="Inter, -apple-system, system-ui, sans-serif" font-size="24" font-weight="400" fill="rgba(40,40,50,0.5)">The New World Order</text>
  <text x="2632.2" y="1065.3" text-anchor="middle" font-family="Inter, -apple-system, system-ui, sans-serif" font-size="24" font-weight="400" fill="rgba(40,40,50,0.5)">9/11</text>
  <text x="3090.9" y="833.9" text-anchor="middle" font-family="Inter, -apple-system, system-ui, sans-serif" font-size="24" font-weight="400" fill="rgba(40,40,50,0.5)">Operation Mockingbird</text>
  <text x="2632.7" y="1576.5" text-anchor="middle" font-family="Inter, -apple-system, system-ui, sans-serif" font-size="24" font-weight="400" fill="rgba(40,40,50,0.5)">Operation Northwoods</text>
  <text x="948.8" y="578.6" text-anchor="middle" font-family="Inter, -apple-system, system-ui, sans-serif" font-size="24" font-weight="400" fill="rgba(40,40,50,0.5)">Panpsychism</text>
  <text x="1776.1" y="263.9" text-anchor="middle" font-family="Inter, -apple-system, system-ui, sans-serif" font-size="24" font-weight="400" fill="rgba(40,40,50,0.5)">The Philadelphia Experiment</text>
  <text x="2415.9" y="1452.3" text-anchor="middle" font-family="Inter, -apple-system, system-ui, sans-serif" font-size="24" font-weight="400" fill="rgba(40,40,50,0.5)">Pizzagate and the Epstein Network</text>
  <text x="1192.9" y="652.9" text-anchor="middle" font-family="Inter, -apple-system, system-ui, sans-serif" font-size="24" font-weight="400" fill="rgba(40,40,50,0.5)">Plato &amp; The Theory of Forms</text>
  <text x="2875.5" y="1512.9" text-anchor="middle" font-family="Inter, -apple-system, system-ui, sans-serif" font-size="24" font-weight="400" fill="rgba(40,40,50,0.5)">QAnon</text>
  <text x="1912.6" y="480.2" text-anchor="middle" font-family="Inter, -apple-system, system-ui, sans-serif" font-size="24" font-weight="400" fill="rgba(40,40,50,0.5)">The Reptilian Elite</text>
  <text x="2824.6" y="422.9" text-anchor="middle" font-family="Inter, -apple-system, system-ui, sans-serif" font-size="24" font-weight="400" fill="rgba(40,40,50,0.5)">The Roswell Incident</text>
  <text x="987.2" y="1300.6" text-anchor="middle" font-family="Inter, -apple-system, system-ui, sans-serif" font-size="24" font-weight="400" fill="rgba(40,40,50,0.5)">Sacred Geometry</text>
  <text x="2164.5" y="1430.2" text-anchor="middle" font-family="Inter, -apple-system, system-ui, sans-serif" font-size="24" font-weight="400" fill="rgba(40,40,50,0.5)">Secret Societies</text>
  <text x="2608.3" y="825.5" text-anchor="middle" font-family="Inter, -apple-system, system-ui, sans-serif" font-size="24" font-weight="400" fill="rgba(40,40,50,0.5)">The Shadow Elite</text>
  <text x="1445.8" y="641.9" text-anchor="middle" font-family="Inter, -apple-system, system-ui, sans-serif" font-size="24" font-weight="400" fill="rgba(40,40,50,0.5)">The Simulation Hypothesis</text>
  <text x="1567.7" y="399.4" text-anchor="middle" font-family="Inter, -apple-system, system-ui, sans-serif" font-size="24" font-weight="400" fill="rgba(40,40,50,0.5)">Stoicism</text>
  <text x="1757.0" y="1753.4" text-anchor="middle" font-family="Inter, -apple-system, system-ui, sans-serif" font-size="24" font-weight="400" fill="rgba(40,40,50,0.5)">Tartaria and the Mud Flood</text>
  <text x="2119.3" y="343.6" text-anchor="middle" font-family="Inter, -apple-system, system-ui, sans-serif" font-size="24" font-weight="400" fill="rgba(40,40,50,0.5)">UFOs &amp; UAPs</text>
</svg>