<svg width="69" height="69" viewBox="0 0 69 69" fill="none" xmlns="http://www.w3.org/2000/svg">
<path d="M34.3334 68.6673C37.2789 68.6673 39.6667 66.2795 39.6667 63.334C39.6667 60.3885 37.2789 58.0007 34.3334 58.0007C31.3879 58.0007 29 60.3885 29 63.334C29 66.2795 31.3879 68.6673 34.3334 68.6673ZM34.3334 10.6673C37.2789 10.6673 39.6667 8.2795 39.6667 5.33398C39.6667 2.38847 37.2789 0.000652438 34.3334 0.000652313C31.3879 0.000652189 29 2.38847 29 5.33398C29 8.2795 31.3879 10.6673 34.3334 10.6673ZM34.3334 63.334L35.3334 63.334L35.3334 5.33398L34.3334 5.33398L33.3334 5.33398L33.3334 63.334L34.3334 63.334Z" fill="#222222"/>
<path d="M4.05312e-05 34.334C4.05312e-05 37.2795 2.38786 39.6673 5.33337 39.6673C8.27889 39.6673 10.6667 37.2795 10.6667 34.334C10.6667 31.3885 8.27889 29.0007 5.33337 29.0007C2.38786 29.0007 4.05312e-05 31.3885 4.05312e-05 34.334ZM58 34.334C58 37.2795 60.3879 39.6673 63.3334 39.6673C66.2789 39.6673 68.6667 37.2795 68.6667 34.334C68.6667 31.3885 66.2789 29.0007 63.3334 29.0007C60.3879 29.0007 58 31.3885 58 34.334ZM5.33337 34.334V35.334H63.3334V34.334V33.334H5.33337V34.334Z" fill="#222222"/>
<path d="M10.056 58.6111C12.1388 60.6939 15.5157 60.6939 17.5985 58.6111C19.6813 56.5283 19.6813 53.1514 17.5985 51.0686C15.5157 48.9858 12.1388 48.9858 10.056 51.0686C7.97324 53.1514 7.97324 56.5283 10.056 58.6111ZM51.0682 17.5989C53.151 19.6817 56.5279 19.6817 58.6107 17.5989C60.6935 15.5161 60.6935 12.1392 58.6107 10.0564C56.5279 7.97362 53.151 7.97362 51.0682 10.0564C48.9854 12.1392 48.9854 15.5161 51.0682 17.5989ZM13.8273 54.8398L14.5344 55.547L55.5466 14.5348L54.8395 13.8277L54.1324 13.1205L13.1202 54.1327L13.8273 54.8398Z" fill="#222222"/>
<path d="M10.056 10.0569C7.97324 12.1397 7.97324 15.5166 10.056 17.5994C12.1388 19.6822 15.5157 19.6822 17.5985 17.5994C19.6813 15.5166 19.6813 12.1397 17.5985 10.0569C15.5157 7.97409 12.1388 7.97409 10.056 10.0569ZM51.0682 51.0691C48.9854 53.1519 48.9854 56.5288 51.0682 58.6116C53.151 60.6943 56.5279 60.6943 58.6107 58.6115C60.6935 56.5288 60.6935 53.1519 58.6107 51.0691C56.5279 48.9863 53.151 48.9863 51.0682 51.0691ZM13.8273 13.8281L13.1202 14.5352L54.1324 55.5474L54.8395 54.8403L55.5466 54.1332L14.5344 13.121L13.8273 13.8281Z" fill="#222222"/>
</svg>
