<svg width="389" height="112" viewBox="0 0 389 112" fill="none" xmlns="http://www.w3.org/2000/svg">
<path d="M34.3334 101.333C37.2789 101.333 39.6667 98.9455 39.6667 96C39.6667 93.0545 37.2789 90.6667 34.3334 90.6667C31.3879 90.6667 29 93.0545 29 96C29 98.9455 31.3879 101.333 34.3334 101.333ZM34.3334 43.3333C37.2789 43.3333 39.6667 40.9455 39.6667 38C39.6667 35.0545 37.2789 32.6667 34.3334 32.6667C31.3879 32.6667 29 35.0545 29 38C29 40.9455 31.3879 43.3333 34.3334 43.3333ZM34.3334 96L35.3334 96L35.3334 38L34.3334 38L33.3334 38L33.3334 96L34.3334 96Z" fill="#222222"/>
<path d="M4.05312e-05 67C4.05312e-05 69.9455 2.38786 72.3333 5.33337 72.3333C8.27889 72.3333 10.6667 69.9455 10.6667 67C10.6667 64.0545 8.27889 61.6667 5.33337 61.6667C2.38786 61.6667 4.05312e-05 64.0545 4.05312e-05 67ZM58 67C58 69.9455 60.3879 72.3333 63.3334 72.3333C66.2789 72.3333 68.6667 69.9455 68.6667 67C68.6667 64.0545 66.2789 61.6667 63.3334 61.6667C60.3879 61.6667 58 64.0545 58 67ZM5.33337 67V68H63.3334V67V66H5.33337V67Z" fill="#222222"/>
<path d="M10.056 91.2771C12.1388 93.3599 15.5157 93.3599 17.5985 91.2771C19.6813 89.1943 19.6813 85.8174 17.5985 83.7346C15.5157 81.6518 12.1388 81.6518 10.056 83.7346C7.97324 85.8174 7.97324 89.1943 10.056 91.2771ZM51.0682 50.2649C53.151 52.3477 56.5279 52.3477 58.6107 50.2649C60.6935 48.1821 60.6935 44.8052 58.6107 42.7224C56.5279 40.6396 53.151 40.6396 51.0682 42.7224C48.9854 44.8052 48.9854 48.1821 51.0682 50.2649ZM13.8273 87.5059L14.5344 88.213L55.5466 47.2008L54.8395 46.4937L54.1324 45.7866L13.1202 86.7988L13.8273 87.5059Z" fill="#222222"/>
<path d="M10.056 42.7229C7.97324 44.8057 7.97324 48.1826 10.056 50.2654C12.1388 52.3482 15.5157 52.3482 17.5985 50.2654C19.6813 48.1826 19.6813 44.8057 17.5985 42.7229C15.5157 40.6401 12.1388 40.6401 10.056 42.7229ZM51.0682 83.7351C48.9854 85.8179 48.9854 89.1948 51.0682 91.2776C53.151 93.3604 56.5279 93.3604 58.6107 91.2776C60.6935 89.1948 60.6935 85.8179 58.6107 83.7351C56.5279 81.6523 53.151 81.6523 51.0682 83.7351ZM13.8273 46.4941L13.1202 47.2012L54.1324 88.2134L54.8395 87.5063L55.5466 86.7992L14.5344 45.787L13.8273 46.4941Z" fill="#222222"/>
<path d="M108.735 43.228C113.601 43.228 117.154 44.458 119.395 46.918C121.691 49.378 122.839 53.1227 122.839 58.152V88H117.673L116.443 81.85H116.197C115.104 83.3807 113.956 84.6927 112.753 85.786C111.551 86.8247 110.157 87.59 108.571 88.082C107.041 88.574 105.237 88.82 103.159 88.82C100.645 88.82 98.458 88.3007 96.5994 87.262C94.7407 86.2233 93.292 84.72 92.2534 82.752C91.2694 80.784 90.7774 78.4607 90.7774 75.782C90.7774 71.4087 92.308 68.0193 95.3694 65.614C98.4854 63.2087 103.159 61.8967 109.391 61.678L115.951 61.432V58.726C115.951 55.1727 115.268 52.658 113.901 51.182C112.589 49.706 110.649 48.968 108.079 48.968C106.166 48.968 104.28 49.2687 102.421 49.87C100.617 50.4713 98.868 51.2093 97.1734 52.084L94.9594 46.836C96.818 45.7427 98.9227 44.868 101.273 44.212C103.679 43.556 106.166 43.228 108.735 43.228ZM110.375 66.68C105.838 66.844 102.64 67.6913 100.781 69.222C98.9227 70.7527 97.9934 72.9393 97.9934 75.782C97.9934 78.2967 98.622 80.1553 99.8794 81.358C101.191 82.5607 102.913 83.162 105.045 83.162C108.216 83.162 110.813 82.096 112.835 79.964C114.913 77.832 115.951 74.6887 115.951 70.534V66.434L110.375 66.68ZM154.558 43.228C159.533 43.228 163.469 45.114 166.366 48.886C169.263 52.658 170.712 58.3433 170.712 65.942C170.712 70.862 170.056 75.044 168.744 78.488C167.432 81.8773 165.573 84.4467 163.168 86.196C160.763 87.9453 157.92 88.82 154.64 88.82C152.672 88.82 150.895 88.5467 149.31 88C147.779 87.3987 146.44 86.606 145.292 85.622C144.144 84.638 143.16 83.5447 142.34 82.342H141.93C142.039 83.326 142.121 84.4467 142.176 85.704C142.285 86.9613 142.34 88.082 142.34 89.066V107.68H135.37V44.048H141.028L142.012 50.034H142.34C143.215 48.6127 144.199 47.41 145.292 46.426C146.44 45.3873 147.779 44.5947 149.31 44.048C150.841 43.5013 152.59 43.228 154.558 43.228ZM153.164 49.132C150.649 49.132 148.599 49.706 147.014 50.854C145.429 51.9473 144.253 53.642 143.488 55.938C142.777 58.1793 142.395 61.0493 142.34 64.548V66.024C142.34 69.7413 142.695 72.8573 143.406 75.372C144.117 77.8867 145.265 79.7727 146.85 81.03C148.435 82.2873 150.595 82.916 153.328 82.916C155.624 82.916 157.51 82.2327 158.986 80.866C160.517 79.4447 161.637 77.4767 162.348 74.962C163.113 72.3927 163.496 69.386 163.496 65.942C163.496 60.6393 162.649 56.512 160.954 53.56C159.314 50.608 156.717 49.132 153.164 49.132ZM196.427 43.228C199.925 43.228 202.877 44.0753 205.283 45.77C207.743 47.41 209.601 49.706 210.859 52.658C212.171 55.61 212.827 59.0267 212.827 62.908V67.336H186.095C186.204 72.42 187.297 76.274 189.375 78.898C191.507 81.522 194.568 82.834 198.559 82.834C200.855 82.834 202.959 82.588 204.873 82.096C206.841 81.604 208.863 80.8387 210.941 79.8V85.95C208.973 86.934 206.977 87.6447 204.955 88.082C202.932 88.574 200.636 88.82 198.067 88.82C194.076 88.82 190.632 87.918 187.735 86.114C184.892 84.31 182.705 81.7407 181.175 78.406C179.699 75.0167 178.961 70.9987 178.961 66.352C178.961 61.4867 179.644 57.332 181.011 53.888C182.432 50.444 184.455 47.82 187.079 46.016C189.703 44.1573 192.819 43.228 196.427 43.228ZM196.345 48.968C193.338 48.968 190.96 50.0613 189.211 52.248C187.516 54.4347 186.505 57.6053 186.177 61.76H205.693C205.693 59.3 205.365 57.1133 204.709 55.2C204.053 53.2867 203.041 51.7833 201.675 50.69C200.308 49.542 198.531 48.968 196.345 48.968ZM229.945 44.048V88H222.975V44.048H229.945ZM226.583 27.484C227.731 27.484 228.688 27.8667 229.453 28.632C230.219 29.3973 230.601 30.5727 230.601 32.158C230.601 33.6887 230.219 34.8367 229.453 35.602C228.688 36.3673 227.731 36.75 226.583 36.75C225.381 36.75 224.369 36.3673 223.549 35.602C222.784 34.8367 222.401 33.6887 222.401 32.158C222.401 30.5727 222.784 29.3973 223.549 28.632C224.315 27.8667 225.326 27.484 226.583 27.484ZM261.205 43.228C261.97 43.228 262.763 43.2827 263.583 43.392C264.457 43.4467 265.223 43.556 265.879 43.72L264.977 50.444C264.321 50.28 263.61 50.1433 262.845 50.034C262.134 49.9247 261.423 49.87 260.713 49.87C259.237 49.87 257.815 50.2253 256.449 50.936C255.137 51.6467 253.961 52.6853 252.923 54.052C251.939 55.364 251.146 56.922 250.545 58.726C249.998 60.53 249.725 62.5253 249.725 64.712V88H242.755V44.048H248.331L249.233 51.838H249.561C250.381 50.198 251.365 48.722 252.513 47.41C253.661 46.098 254.973 45.0867 256.449 44.376C257.925 43.6107 259.51 43.228 261.205 43.228ZM291.795 43.228C292.56 43.228 293.353 43.2827 294.173 43.392C295.047 43.4467 295.813 43.556 296.469 43.72L295.567 50.444C294.911 50.28 294.2 50.1433 293.435 50.034C292.724 49.9247 292.013 49.87 291.303 49.87C289.827 49.87 288.405 50.2253 287.039 50.936C285.727 51.6467 284.551 52.6853 283.513 54.052C282.529 55.364 281.736 56.922 281.135 58.726C280.588 60.53 280.315 62.5253 280.315 64.712V88H273.345V44.048H278.921L279.823 51.838H280.151C280.971 50.198 281.955 48.722 283.103 47.41C284.251 46.098 285.563 45.0867 287.039 44.376C288.515 43.6107 290.1 43.228 291.795 43.228ZM338.292 65.942C338.292 69.55 337.882 72.748 337.062 75.536C336.242 78.324 335.04 80.7293 333.454 82.752C331.869 84.72 329.928 86.2233 327.632 87.262C325.336 88.3007 322.74 88.82 319.842 88.82C317.109 88.82 314.622 88.3007 312.38 87.262C310.139 86.2233 308.226 84.72 306.64 82.752C305.055 80.784 303.825 78.406 302.95 75.618C302.076 72.7753 301.638 69.55 301.638 65.942C301.638 61.0767 302.349 56.9767 303.77 53.642C305.246 50.2527 307.351 47.6833 310.084 45.934C312.818 44.13 316.125 43.228 320.006 43.228C323.669 43.228 326.867 44.1027 329.6 45.852C332.334 47.6013 334.466 50.1707 335.996 53.56C337.527 56.8947 338.292 61.022 338.292 65.942ZM308.854 65.942C308.854 69.4953 309.237 72.5567 310.002 75.126C310.822 77.6407 312.052 79.5813 313.692 80.948C315.332 82.26 317.437 82.916 320.006 82.916C322.521 82.916 324.598 82.26 326.238 80.948C327.878 79.5813 329.081 77.6407 329.846 75.126C330.666 72.5567 331.076 69.4953 331.076 65.942C331.076 62.334 330.666 59.3 329.846 56.84C329.081 54.3253 327.878 52.4393 326.238 51.182C324.598 49.87 322.494 49.214 319.924 49.214C316.043 49.214 313.228 50.6627 311.478 53.56C309.729 56.4573 308.854 60.5847 308.854 65.942ZM367.968 43.228C372.615 43.228 376.113 44.4853 378.464 47C380.815 49.5147 381.99 53.5053 381.99 58.972V88H375.02V59.71C375.02 56.2113 374.364 53.5873 373.052 51.838C371.74 50.0887 369.635 49.214 366.738 49.214C362.638 49.214 359.768 50.5533 358.128 53.232C356.488 55.856 355.668 59.8467 355.668 65.204V88H348.698V44.048H354.274L355.258 50.034H355.668C356.543 48.5033 357.609 47.246 358.866 46.262C360.123 45.2233 361.545 44.458 363.13 43.966C364.715 43.474 366.328 43.228 367.968 43.228Z" fill="black"/>
</svg>
